<mxfile host="app.diagrams.net" agent="Mozilla/5.0 (Windows NT 10.0; Win64; x64) AppleWebKit/537.36 (KHTML, like Gecko) Chrome/128.0.0.0 Safari/537.36" version="24.7.12">
  <diagram name="第 1 页" id="RWx5AZ2UykOKAbwejU3T">
    <mxGraphModel dx="1434" dy="772" grid="1" gridSize="10" guides="1" tooltips="1" connect="1" arrows="1" fold="1" page="1" pageScale="1" pageWidth="827" pageHeight="1169" math="0" shadow="0">
      <root>
        <mxCell id="0" />
        <mxCell id="1" parent="0" />
        <mxCell id="_itwaKERQzLCIFUuyruo-8" style="rounded=0;orthogonalLoop=1;jettySize=auto;html=1;exitX=0.75;exitY=1;exitDx=0;exitDy=0;entryX=0.75;entryY=0;entryDx=0;entryDy=0;" edge="1" parent="1" source="_itwaKERQzLCIFUuyruo-1" target="_itwaKERQzLCIFUuyruo-2">
          <mxGeometry relative="1" as="geometry" />
        </mxCell>
        <mxCell id="_itwaKERQzLCIFUuyruo-9" value="推送3次消息" style="edgeLabel;html=1;align=center;verticalAlign=middle;resizable=0;points=[];" vertex="1" connectable="0" parent="_itwaKERQzLCIFUuyruo-8">
          <mxGeometry x="-0.0944" relative="1" as="geometry">
            <mxPoint as="offset" />
          </mxGeometry>
        </mxCell>
        <mxCell id="_itwaKERQzLCIFUuyruo-10" style="rounded=0;orthogonalLoop=1;jettySize=auto;html=1;exitX=1;exitY=1;exitDx=0;exitDy=0;entryX=1;entryY=0;entryDx=0;entryDy=0;" edge="1" parent="1" source="_itwaKERQzLCIFUuyruo-1" target="_itwaKERQzLCIFUuyruo-2">
          <mxGeometry relative="1" as="geometry" />
        </mxCell>
        <mxCell id="_itwaKERQzLCIFUuyruo-11" value="关闭连接" style="edgeLabel;html=1;align=center;verticalAlign=middle;resizable=0;points=[];fontColor=#FF0000;" vertex="1" connectable="0" parent="_itwaKERQzLCIFUuyruo-10">
          <mxGeometry x="0.2197" y="2" relative="1" as="geometry">
            <mxPoint as="offset" />
          </mxGeometry>
        </mxCell>
        <mxCell id="_itwaKERQzLCIFUuyruo-1" value="netty server" style="rounded=1;whiteSpace=wrap;html=1;" vertex="1" parent="1">
          <mxGeometry x="280" y="10" width="120" height="60" as="geometry" />
        </mxCell>
        <mxCell id="_itwaKERQzLCIFUuyruo-3" style="rounded=0;orthogonalLoop=1;jettySize=auto;html=1;exitX=0.5;exitY=0;exitDx=0;exitDy=0;entryX=0.5;entryY=1;entryDx=0;entryDy=0;" edge="1" parent="1" source="_itwaKERQzLCIFUuyruo-2" target="_itwaKERQzLCIFUuyruo-1">
          <mxGeometry relative="1" as="geometry" />
        </mxCell>
        <mxCell id="_itwaKERQzLCIFUuyruo-4" value="建立连接" style="edgeLabel;html=1;align=center;verticalAlign=middle;resizable=0;points=[];" vertex="1" connectable="0" parent="_itwaKERQzLCIFUuyruo-3">
          <mxGeometry x="-0.1486" relative="1" as="geometry">
            <mxPoint as="offset" />
          </mxGeometry>
        </mxCell>
        <mxCell id="_itwaKERQzLCIFUuyruo-2" value="设备" style="rounded=1;whiteSpace=wrap;html=1;" vertex="1" parent="1">
          <mxGeometry x="70" y="200" width="120" height="60" as="geometry" />
        </mxCell>
        <mxCell id="_itwaKERQzLCIFUuyruo-6" style="edgeStyle=orthogonalEdgeStyle;rounded=0;orthogonalLoop=1;jettySize=auto;html=1;exitX=0;exitY=0.5;exitDx=0;exitDy=0;entryX=1;entryY=0.5;entryDx=0;entryDy=0;" edge="1" parent="1" source="_itwaKERQzLCIFUuyruo-5" target="_itwaKERQzLCIFUuyruo-1">
          <mxGeometry relative="1" as="geometry" />
        </mxCell>
        <mxCell id="_itwaKERQzLCIFUuyruo-7" value="提供消息" style="edgeLabel;html=1;align=center;verticalAlign=middle;resizable=0;points=[];" vertex="1" connectable="0" parent="_itwaKERQzLCIFUuyruo-6">
          <mxGeometry x="0.0429" y="2" relative="1" as="geometry">
            <mxPoint as="offset" />
          </mxGeometry>
        </mxCell>
        <mxCell id="_itwaKERQzLCIFUuyruo-5" value="device server" style="rounded=1;whiteSpace=wrap;html=1;" vertex="1" parent="1">
          <mxGeometry x="530" y="10" width="120" height="60" as="geometry" />
        </mxCell>
        <mxCell id="_itwaKERQzLCIFUuyruo-14" value="merchant server" style="text;html=1;align=center;verticalAlign=middle;resizable=0;points=[];autosize=1;strokeColor=none;fillColor=none;" vertex="1" parent="1">
          <mxGeometry x="120" y="378" width="110" height="30" as="geometry" />
        </mxCell>
        <mxCell id="_itwaKERQzLCIFUuyruo-19" value="netty server" style="text;html=1;align=center;verticalAlign=middle;resizable=0;points=[];autosize=1;strokeColor=none;fillColor=none;" vertex="1" parent="1">
          <mxGeometry x="369" y="378" width="90" height="30" as="geometry" />
        </mxCell>
        <mxCell id="_itwaKERQzLCIFUuyruo-21" value="device client" style="text;html=1;align=center;verticalAlign=middle;resizable=0;points=[];autosize=1;strokeColor=none;fillColor=none;" vertex="1" parent="1">
          <mxGeometry x="620" y="378" width="90" height="30" as="geometry" />
        </mxCell>
        <mxCell id="_itwaKERQzLCIFUuyruo-30" style="edgeStyle=orthogonalEdgeStyle;rounded=0;orthogonalLoop=1;jettySize=auto;html=1;curved=0;exitX=0;exitY=0;exitDx=0;exitDy=5;exitPerimeter=0;" edge="1" parent="1" source="_itwaKERQzLCIFUuyruo-26">
          <mxGeometry relative="1" as="geometry">
            <mxPoint x="420" y="435" as="targetPoint" />
          </mxGeometry>
        </mxCell>
        <mxCell id="_itwaKERQzLCIFUuyruo-31" value="建立连接" style="edgeLabel;html=1;align=center;verticalAlign=middle;resizable=0;points=[];" vertex="1" connectable="0" parent="_itwaKERQzLCIFUuyruo-30">
          <mxGeometry x="-0.0021" y="4" relative="1" as="geometry">
            <mxPoint x="1" as="offset" />
          </mxGeometry>
        </mxCell>
        <mxCell id="_itwaKERQzLCIFUuyruo-26" value="" style="html=1;points=[[0,0,0,0,5],[0,1,0,0,-5],[1,0,0,0,5],[1,1,0,0,-5]];perimeter=orthogonalPerimeter;outlineConnect=0;targetShapes=umlLifeline;portConstraint=eastwest;newEdgeStyle={&quot;curved&quot;:0,&quot;rounded&quot;:0};" vertex="1" parent="1">
          <mxGeometry x="660" y="430" width="10" height="80" as="geometry" />
        </mxCell>
        <mxCell id="_itwaKERQzLCIFUuyruo-27" value="" style="html=1;points=[[0,0,0,0,5],[0,1,0,0,-5],[1,0,0,0,5],[1,1,0,0,-5]];perimeter=orthogonalPerimeter;outlineConnect=0;targetShapes=umlLifeline;portConstraint=eastwest;newEdgeStyle={&quot;curved&quot;:0,&quot;rounded&quot;:0};" vertex="1" parent="1">
          <mxGeometry x="409" y="430" width="10" height="80" as="geometry" />
        </mxCell>
        <mxCell id="_itwaKERQzLCIFUuyruo-33" value="记录channel" style="html=1;align=left;spacingLeft=2;endArrow=block;rounded=0;edgeStyle=orthogonalEdgeStyle;curved=0;rounded=0;" edge="1" parent="1">
          <mxGeometry relative="1" as="geometry">
            <mxPoint x="419" y="460" as="sourcePoint" />
            <Array as="points">
              <mxPoint x="449" y="490" />
            </Array>
            <mxPoint x="424" y="490" as="targetPoint" />
          </mxGeometry>
        </mxCell>
        <mxCell id="_itwaKERQzLCIFUuyruo-35" value="" style="html=1;points=[[0,0,0,0,5],[0,1,0,0,-5],[1,0,0,0,5],[1,1,0,0,-5]];perimeter=orthogonalPerimeter;outlineConnect=0;targetShapes=umlLifeline;portConstraint=eastwest;newEdgeStyle={&quot;curved&quot;:0,&quot;rounded&quot;:0};" vertex="1" parent="1">
          <mxGeometry x="170" y="545" width="10" height="80" as="geometry" />
        </mxCell>
        <mxCell id="_itwaKERQzLCIFUuyruo-37" value="self call" style="html=1;align=left;spacingLeft=2;endArrow=block;rounded=0;edgeStyle=orthogonalEdgeStyle;curved=0;rounded=0;" edge="1" parent="1">
          <mxGeometry relative="1" as="geometry">
            <mxPoint x="880" y="730" as="sourcePoint" />
            <Array as="points">
              <mxPoint x="910" y="760" />
            </Array>
            <mxPoint x="885" y="760" as="targetPoint" />
          </mxGeometry>
        </mxCell>
        <mxCell id="_itwaKERQzLCIFUuyruo-38" value="批量创建产品" style="html=1;align=left;spacingLeft=2;endArrow=block;rounded=0;edgeStyle=orthogonalEdgeStyle;curved=0;rounded=0;" edge="1" parent="1">
          <mxGeometry relative="1" as="geometry">
            <mxPoint x="180" y="555" as="sourcePoint" />
            <Array as="points">
              <mxPoint x="210" y="585" />
            </Array>
            <mxPoint x="185" y="585" as="targetPoint" />
          </mxGeometry>
        </mxCell>
        <mxCell id="_itwaKERQzLCIFUuyruo-39" value="" style="html=1;perimeter=orthogonalPerimeter;outlineConnect=0;targetShapes=umlLifeline;portConstraint=eastwest;newEdgeStyle={&quot;curved&quot;:0,&quot;rounded&quot;:0};points=[[0,0,0,0,0],[0,0.25,0,0,0],[0,0.5,0,0,0],[0,0.75,0,0,0],[0,1,0,0,0],[0.25,0,0,0,0],[0.25,1,0,0,0],[0.5,0,0,0,0],[0.5,1,0,0,0],[0.75,0,0,0,0],[0.75,1,0,0,0],[1,0,0,0,0],[1,0.25,0,0,0],[1,0.5,0,0,0],[1,0.75,0,0,0],[1,1,0,0,0]];" vertex="1" parent="1">
          <mxGeometry x="409" y="545" width="10" height="305" as="geometry" />
        </mxCell>
        <mxCell id="_itwaKERQzLCIFUuyruo-40" style="edgeStyle=orthogonalEdgeStyle;rounded=0;orthogonalLoop=1;jettySize=auto;html=1;curved=0;exitX=1;exitY=1;exitDx=0;exitDy=-5;exitPerimeter=0;entryX=0;entryY=0.25;entryDx=0;entryDy=0;entryPerimeter=0;" edge="1" parent="1" source="_itwaKERQzLCIFUuyruo-35" target="_itwaKERQzLCIFUuyruo-39">
          <mxGeometry relative="1" as="geometry">
            <mxPoint x="400" y="620" as="targetPoint" />
          </mxGeometry>
        </mxCell>
        <mxCell id="_itwaKERQzLCIFUuyruo-41" value="通知netty server" style="edgeLabel;html=1;align=center;verticalAlign=middle;resizable=0;points=[];" vertex="1" connectable="0" parent="_itwaKERQzLCIFUuyruo-40">
          <mxGeometry x="-0.1616" y="-3" relative="1" as="geometry">
            <mxPoint as="offset" />
          </mxGeometry>
        </mxCell>
        <mxCell id="_itwaKERQzLCIFUuyruo-42" value="" style="html=1;perimeter=orthogonalPerimeter;outlineConnect=0;targetShapes=umlLifeline;portConstraint=eastwest;newEdgeStyle={&quot;curved&quot;:0,&quot;rounded&quot;:0};points=[[0,0,0,0,0],[0,0.25,0,0,0],[0,0.5,0,0,0],[0,0.75,0,0,0],[0,1,0,0,0],[0.25,0,0,0,0],[0.25,1,0,0,0],[0.5,0,0,0,0],[0.5,1,0,0,0],[0.75,0,0,0,0],[0.75,1,0,0,0],[1,0,0,0,0],[1,0.25,0,0,0],[1,0.5,0,0,0],[1,0.75,0,0,0],[1,1,0,0,0]];" vertex="1" parent="1">
          <mxGeometry x="660" y="540" width="10" height="305" as="geometry" />
        </mxCell>
        <mxCell id="_itwaKERQzLCIFUuyruo-44" value="发3次消息" style="html=1;verticalAlign=bottom;endArrow=block;curved=0;rounded=0;" edge="1" parent="1" target="_itwaKERQzLCIFUuyruo-42">
          <mxGeometry width="80" relative="1" as="geometry">
            <mxPoint x="419" y="640" as="sourcePoint" />
            <mxPoint x="499" y="640" as="targetPoint" />
          </mxGeometry>
        </mxCell>
        <mxCell id="_itwaKERQzLCIFUuyruo-45" value="device biz code" style="html=1;align=left;spacingLeft=2;endArrow=block;rounded=0;edgeStyle=orthogonalEdgeStyle;curved=0;rounded=0;" edge="1" parent="1">
          <mxGeometry relative="1" as="geometry">
            <mxPoint x="670" y="660" as="sourcePoint" />
            <Array as="points">
              <mxPoint x="700" y="690" />
            </Array>
            <mxPoint x="675" y="690" as="targetPoint" />
          </mxGeometry>
        </mxCell>
        <mxCell id="_itwaKERQzLCIFUuyruo-46" value="&lt;font color=&quot;#ff0000&quot;&gt;关闭连接&lt;/font&gt;" style="html=1;verticalAlign=bottom;endArrow=block;curved=0;rounded=0;" edge="1" parent="1">
          <mxGeometry x="0.0041" width="80" relative="1" as="geometry">
            <mxPoint x="419" y="720" as="sourcePoint" />
            <mxPoint x="660" y="720" as="targetPoint" />
            <mxPoint as="offset" />
          </mxGeometry>
        </mxCell>
        <mxCell id="_itwaKERQzLCIFUuyruo-47" value="&lt;font color=&quot;#ff0000&quot;&gt;这里为什么要关闭客户端连接？&lt;br&gt;之后客户端需要再次建立连接才能收到消息，&lt;br&gt;这样不是浪费资源吗？&lt;/font&gt;" style="text;html=1;align=center;verticalAlign=middle;resizable=0;points=[];autosize=1;strokeColor=none;fillColor=none;" vertex="1" parent="1">
          <mxGeometry x="414" y="740" width="260" height="60" as="geometry" />
        </mxCell>
      </root>
    </mxGraphModel>
  </diagram>
</mxfile>
